<?xml version="1.0" encoding="UTF-8"?>
<svg id="Layer_2" data-name="Layer 2" xmlns="http://www.w3.org/2000/svg" viewBox="0 0 100.64 38.61">
  <defs>
    <style>
      .cls-1 {
        fill: #ed3224;
      }

      .cls-2 {
        fill: #fff;
      }
    </style>
  </defs>
  <g id="text">
    <g>
      <g>
        <path class="cls-2" d="m13.85,21.47c-.4-.73-.6-1.46-.6-2.19s.2-1.48.6-2.25c.4-.77.97-1.57,1.7-2.42L28.61,0h-4.38l-11.92,13.36c-.92,1-1.59,2.01-2.02,3.02-.17.41-.3.83-.4,1.24H3.68V0H0v38.46h3.68v-17.5h6.17c.1.46.25.92.45,1.38.42,1,1.09,2,2.02,2.99l12.03,13.13h4.66l-13.47-14.62c-.73-.84-1.3-1.63-1.7-2.36Z"/>
        <path class="cls-2" d="m96.67,0l-8.64,19.98c-.38.84-.8,1.51-1.24,1.99-.44.48-1.01.72-1.7.72-.73,0-1.31-.24-1.73-.72-.42-.48-.84-1.14-1.27-1.99L73.53,0h-3.97l9.21,20.96c.77,1.69,1.66,2.95,2.68,3.77.53.43,1.12.75,1.76.95v12.78h3.68v-12.78c.64-.21,1.24-.52,1.78-.95,1.04-.83,1.92-2.08,2.65-3.77L100.64,0h-3.97Z"/>
      </g>
      <g>
        <path class="cls-1" d="m38.55,13.71c1.75-.36,3.36-1.1,4.81-2.18,2.19-1.64,3.63-3.86,4.93-6.64.15-.33.29-.65.39-.91l.34-.85.34.85c.1.25.24.58.39.91,1.29,2.79,2.73,5,4.93,6.64,1.45,1.09,3.07,1.82,4.81,2.18l2.04-3.39c-1.96-.12-3.77-.8-5.38-2.03-1.76-1.35-3.17-3.16-4.2-5.39-.39-.85-.71-1.76-.96-2.72h-1.97s-1.97,0-1.97,0c-.25.95-.57,1.87-.96,2.72-1.03,2.23-2.44,4.05-4.2,5.39-1.61,1.23-3.41,1.91-5.38,2.03l2.04,3.39Z"/>
        <path class="cls-1" d="m33.23,29.51c1.59,2.74,3.78,4.97,6.51,6.62,2.72,1.64,5.84,2.48,9.25,2.48.01,0,.02,0,.04,0,.01,0,.02,0,.04,0,3.42,0,6.53-.83,9.25-2.48,2.73-1.65,4.92-3.87,6.51-6.62,1.59-2.74,2.39-5.83,2.39-9.17,0-2.72-.56-5.3-1.65-7.66l-2.7,3.58c.38,1.33.58,2.73.58,4.16,0,2.65-.64,5.11-1.91,7.31-1.27,2.2-3,3.98-5.16,5.31-2.16,1.33-4.62,2-7.3,2-.01,0-.02,0-.04,0-.01,0-.02,0-.04,0-2.68,0-5.14-.67-7.3-2-2.16-1.32-3.89-3.11-5.16-5.31-1.27-2.2-1.91-4.66-1.91-7.31,0-1.43.19-2.83.58-4.16l-2.7-3.58c-1.1,2.36-1.65,4.94-1.65,7.66,0,3.34.81,6.43,2.39,9.17Z"/>
      </g>
    </g>
  </g>
</svg>