<?xml version="1.0" encoding="UTF-8"?>
<svg id="Layer_2" data-name="Layer 2" xmlns="http://www.w3.org/2000/svg" viewBox="0 0 451.19 303.45">
  <defs>
    <style>
      .cls-1 {
        fill: #ed3224;
      }

      .cls-2 {
        fill: #fff;
      }
    </style>
  </defs>
  <g id="img">
    <g>
      <rect class="cls-1" y="199.95" width="451.19" height="5.06"/>
      <g>
        <path class="cls-2" d="m72.63,90.06c-1.69-3.06-2.54-6.11-2.54-9.17s.85-6.2,2.54-9.42c1.69-3.22,4.06-6.6,7.12-10.14L134.56,0h-18.35l-49.98,56.01c-3.86,4.19-6.68,8.41-8.45,12.68-.72,1.74-1.26,3.47-1.69,5.19h-26.08V0h-15.45v161.28h15.45v-73.4h25.88c.44,1.91,1.05,3.85,1.88,5.8,1.77,4.19,4.59,8.37,8.45,12.56l50.46,55.05h19.56l-56.5-61.33c-3.06-3.54-5.43-6.84-7.12-9.9Z"/>
        <path class="cls-2" d="m419.97,0l-36.22,83.78c-1.61,3.54-3.34,6.32-5.19,8.33-1.85,2.01-4.22,3.02-7.12,3.02-3.06,0-5.48-1-7.24-3.02-1.77-2.01-3.54-4.79-5.31-8.33L322.91,0h-16.66l38.63,87.88c3.22,7.09,6.96,12.35,11.23,15.82,2.24,1.82,4.7,3.13,7.36,3.99v53.59h15.45v-53.58c2.69-.86,5.2-2.17,7.49-4,4.35-3.46,8.04-8.73,11.11-15.82L436.63,0h-16.66Z"/>
      </g>
      <g>
        <path class="cls-2" d="m22.15,259.77l-.05.02c.52-2.15,1.26-4.09,2.22-5.83.95-1.73,2.09-3.21,3.41-4.44,1.32-1.22,2.8-2.16,4.45-2.83,1.65-.66,3.42-.99,5.3-.99,1.7,0,3.31.24,4.83.73,1.52.49,2.93,1.19,4.22,2.09,1.29.91,2.46,2.01,3.5,3.3,1.04,1.3,1.92,2.75,2.65,4.36.73,1.61,1.28,3.37,1.68,5.26.39,1.9.59,3.9.59,6.01s-.2,4.12-.59,6.01c-.39,1.9-.95,3.66-1.68,5.27-.73,1.62-1.61,3.07-2.65,4.36-1.04,1.29-2.21,2.4-3.5,3.31-1.29.91-2.7,1.61-4.22,2.1-1.52.49-3.13.73-4.83.73-1.88,0-3.65-.33-5.3-.99-1.65-.66-3.13-1.6-4.45-2.83-1.32-1.22-2.45-2.71-3.41-4.45-.95-1.74-1.69-3.69-2.22-5.83l.05.04v12.94h-7.58v-55.43h7.58v27.08Zm.39,12.09c.26,1.35.64,2.59,1.14,3.72.5,1.12,1.12,2.12,1.85,2.98.74.87,1.58,1.6,2.52,2.19.94.59,1.98,1.05,3.13,1.36,1.14.31,2.37.47,3.7.47,2.02,0,3.81-.33,5.36-.98,1.55-.66,2.85-1.62,3.9-2.9,1.06-1.28,1.86-2.86,2.4-4.74.54-1.88.81-4.04.81-6.49s-.27-4.61-.81-6.49c-.54-1.88-1.34-3.45-2.39-4.73-1.05-1.27-2.35-2.24-3.9-2.89-1.55-.66-3.34-.98-5.37-.98-1.32,0-2.55.16-3.7.47-1.14.31-2.19.77-3.13,1.36-.94.59-1.78,1.32-2.52,2.19-.73.87-1.35,1.86-1.85,2.98s-.88,2.35-1.14,3.71c-.26,1.36-.39,2.82-.39,4.39s.13,3.04.39,4.39Z"/>
        <path class="cls-2" d="m61.03,254.79c.87-1.91,2.12-3.54,3.76-4.89,1.63-1.35,3.6-2.38,5.93-3.11,2.32-.72,4.93-1.09,7.81-1.09,3.06,0,5.8.41,8.22,1.23,2.42.82,4.47,2,6.16,3.53,1.69,1.54,2.98,3.41,3.88,5.63s1.35,4.73,1.35,7.54v24.5h-7.58v-11.31h.05c-.32,1.29-.77,2.48-1.33,3.6-.56,1.11-1.23,2.13-2,3.05-.77.92-1.65,1.75-2.63,2.46-.98.72-2.05,1.32-3.2,1.82-1.16.49-2.4.87-3.72,1.12s-2.72.38-4.18.38c-2.26,0-4.31-.3-6.16-.89-1.85-.59-3.43-1.44-4.75-2.53-1.32-1.09-2.33-2.4-3.05-3.93-.72-1.53-1.08-3.23-1.08-5.1s.37-3.58,1.12-5.09c.74-1.51,1.81-2.8,3.2-3.85,1.39-1.05,3.08-1.86,5.07-2.43,1.98-.56,4.22-.84,6.72-.84h16.22v6.37h-16.29c-1.4,0-2.63.12-3.69.36s-1.95.59-2.67,1.07c-.72.48-1.26,1.06-1.63,1.76-.37.7-.55,1.51-.55,2.42,0,.97.21,1.84.63,2.6s1.03,1.4,1.84,1.91c.81.51,1.81.9,3.01,1.17s2.56.4,4.11.4c1.46,0,2.84-.12,4.15-.36,1.3-.24,2.51-.57,3.62-1.01,1.11-.44,2.11-.97,3-1.59.88-.62,1.64-1.33,2.26-2.11s1.1-1.63,1.43-2.56c.33-.92.5-1.9.5-2.92v-8.46c0-1.7-.28-3.23-.85-4.59-.57-1.36-1.37-2.52-2.42-3.48-1.05-.96-2.32-1.7-3.82-2.21-1.5-.51-3.18-.77-5.06-.77s-3.56.2-4.95.62c-1.39.41-2.54.99-3.44,1.74-.91.75-1.58,1.66-2.02,2.73-.44,1.07-.66,2.25-.66,3.55h-7.58c0-2.37.44-4.51,1.31-6.42Z"/>
        <path class="cls-2" d="m111.51,288.13h-7.58v-41.3h7.58v13.39l-.05.02c.46-2.08,1.15-3.96,2.05-5.62.91-1.66,2.03-3.07,3.37-4.22,1.34-1.16,2.9-2.04,4.67-2.65,1.77-.61,3.76-.92,5.95-.92h1.87v7.23h-1.86c-3.02,0-5.55.28-7.6.83-2.05.56-3.69,1.4-4.93,2.52-1.24,1.12-2.13,2.54-2.67,4.24-.54,1.71-.81,3.71-.81,6v20.47Z"/>
        <path class="cls-2" d="m158.8,286.44c0,1.9-.15,3.64-.44,5.22-.29,1.58-.73,3-1.31,4.26-.58,1.26-1.31,2.36-2.19,3.3s-1.91,1.72-3.08,2.35-2.49,1.1-3.96,1.41c-1.47.31-3.08.47-4.84.47h-1.2v-6.86h1.2c1.35,0,2.49-.17,3.42-.52s1.7-.8,2.31-1.36c.61-.56,1.09-1.2,1.42-1.92.34-.72.59-1.45.75-2.21.16-.76.26-1.5.29-2.22.03-.73.05-1.37.05-1.93v-39.61h7.58v39.61Zm.19-44.38h-7.96v-9.36h7.96v9.36Z"/>
        <path class="cls-2" d="m166.2,254.79c.87-1.91,2.12-3.54,3.76-4.89,1.63-1.35,3.6-2.38,5.93-3.11,2.32-.72,4.93-1.09,7.81-1.09,3.06,0,5.8.41,8.22,1.23,2.42.82,4.47,2,6.16,3.53,1.69,1.54,2.98,3.41,3.88,5.63.9,2.22,1.35,4.73,1.35,7.54v24.5h-7.58v-11.31h.05c-.32,1.29-.77,2.48-1.33,3.6-.56,1.11-1.23,2.13-2,3.05s-1.65,1.75-2.63,2.46c-.98.72-2.05,1.32-3.2,1.82-1.16.49-2.4.87-3.72,1.12s-2.72.38-4.18.38c-2.26,0-4.31-.3-6.16-.89-1.85-.59-3.43-1.44-4.75-2.53-1.32-1.09-2.33-2.4-3.05-3.93-.72-1.53-1.08-3.23-1.08-5.1s.37-3.58,1.12-5.09c.74-1.51,1.81-2.8,3.2-3.85,1.39-1.05,3.08-1.86,5.07-2.43,1.98-.56,4.22-.84,6.72-.84h16.22v6.37h-16.29c-1.4,0-2.63.12-3.69.36s-1.95.59-2.67,1.07c-.72.48-1.26,1.06-1.63,1.76-.37.7-.55,1.51-.55,2.42,0,.97.21,1.84.63,2.6.42.76,1.03,1.4,1.84,1.91.81.51,1.81.9,3.01,1.17s2.56.4,4.11.4c1.46,0,2.84-.12,4.15-.36,1.3-.24,2.51-.57,3.62-1.01,1.11-.44,2.11-.97,3-1.59.88-.62,1.64-1.33,2.26-2.11.62-.78,1.1-1.63,1.43-2.56.33-.92.5-1.9.5-2.92v-8.46c0-1.7-.28-3.23-.85-4.59-.57-1.36-1.37-2.52-2.42-3.48-1.05-.96-2.32-1.7-3.82-2.21-1.5-.51-3.18-.77-5.06-.77s-3.56.2-4.95.62c-1.39.41-2.54.99-3.44,1.74-.91.75-1.58,1.66-2.02,2.73-.44,1.07-.66,2.25-.66,3.55h-7.58c0-2.37.44-4.51,1.31-6.42Z"/>
        <path class="cls-2" d="m216.69,259.77l-.05.02c.52-2.15,1.26-4.09,2.22-5.83.95-1.73,2.09-3.21,3.41-4.44,1.32-1.22,2.8-2.16,4.45-2.83,1.65-.66,3.42-.99,5.3-.99,1.7,0,3.31.24,4.83.73,1.52.49,2.93,1.19,4.22,2.09s2.46,2.01,3.5,3.3c1.04,1.3,1.92,2.75,2.65,4.36.73,1.61,1.28,3.37,1.68,5.26s.59,3.9.59,6.01-.2,4.12-.59,6.01c-.39,1.9-.95,3.66-1.68,5.27-.73,1.62-1.61,3.07-2.65,4.36-1.04,1.29-2.21,2.4-3.5,3.31-1.29.91-2.7,1.61-4.22,2.1-1.52.49-3.13.73-4.83.73-1.88,0-3.65-.33-5.3-.99-1.65-.66-3.13-1.6-4.45-2.83-1.32-1.22-2.45-2.71-3.41-4.45-.95-1.74-1.69-3.69-2.22-5.83l.05.04v27.08h-7.58v-55.44h7.58v12.94Zm.39,12.09c.26,1.35.64,2.59,1.14,3.72.5,1.12,1.12,2.12,1.85,2.98.74.87,1.58,1.6,2.52,2.19.94.59,1.98,1.05,3.13,1.36,1.14.31,2.37.47,3.7.47,2.02,0,3.81-.33,5.36-.98,1.55-.66,2.85-1.62,3.9-2.9,1.06-1.28,1.86-2.86,2.4-4.74.54-1.88.81-4.04.81-6.49s-.27-4.61-.81-6.49c-.54-1.88-1.34-3.45-2.39-4.73-1.05-1.27-2.35-2.24-3.9-2.89-1.55-.66-3.34-.98-5.37-.98-1.32,0-2.55.16-3.7.47-1.14.31-2.19.77-3.13,1.36-.94.59-1.78,1.32-2.52,2.19-.73.87-1.35,1.86-1.85,2.98-.5,1.12-.88,2.35-1.14,3.71-.26,1.36-.39,2.82-.39,4.39s.13,3.04.39,4.39Z"/>
        <path class="cls-2" d="m254.26,261.33c.44-1.92,1.07-3.69,1.89-5.3.83-1.61,1.83-3.05,3.01-4.33,1.18-1.28,2.52-2.36,4.01-3.25,1.5-.89,3.14-1.56,4.92-2.03,1.78-.47,3.68-.7,5.7-.7s3.92.23,5.7.7c1.78.47,3.42,1.15,4.92,2.03,1.5.89,2.84,1.97,4.02,3.25s2.18,2.73,3.01,4.33c.82,1.61,1.45,3.38,1.89,5.3.44,1.92.66,3.97.66,6.14s-.22,4.22-.66,6.14c-.44,1.92-1.07,3.69-1.89,5.31-.83,1.62-1.83,3.06-3.01,4.34-1.19,1.27-2.53,2.36-4.02,3.25-1.49.89-3.13,1.57-4.91,2.04-1.78.47-3.68.7-5.7.7s-3.92-.23-5.7-.7c-1.78-.47-3.41-1.15-4.91-2.04-1.49-.89-2.83-1.98-4.01-3.25-1.19-1.27-2.19-2.72-3.02-4.34-.82-1.62-1.45-3.39-1.89-5.31-.44-1.92-.66-3.97-.66-6.14s.22-4.22.66-6.14Zm7.8,12.37c.58,1.84,1.42,3.4,2.51,4.69,1.09,1.29,2.42,2.28,3.98,2.97s3.31,1.04,5.26,1.04,3.7-.34,5.26-1.03c1.55-.69,2.87-1.68,3.96-2.97s1.92-2.86,2.5-4.7c.58-1.84.87-3.92.87-6.23s-.29-4.38-.87-6.23c-.58-1.84-1.41-3.4-2.5-4.69s-2.41-2.27-3.96-2.96c-1.55-.69-3.31-1.03-5.26-1.03s-3.7.34-5.26,1.03c-1.56.69-2.89,1.67-3.98,2.96-1.09,1.29-1.93,2.85-2.51,4.69-.58,1.84-.87,3.92-.87,6.23s.29,4.39.87,6.23Z"/>
        <path class="cls-2" d="m306.62,288.13h-7.58v-41.3h7.58v12.14l-.05.04c.49-2.07,1.19-3.93,2.12-5.57.93-1.64,2.05-3.03,3.37-4.18,1.32-1.14,2.81-2.02,4.48-2.63,1.66-.61,3.47-.92,5.4-.92,2.36,0,4.47.44,6.33,1.33,1.86.89,3.43,2.16,4.72,3.83,1.29,1.66,2.27,3.69,2.96,6.08.69,2.39,1.03,5.08,1.03,8.08v23.09h-7.59v-23.09c0-2.07-.22-3.88-.66-5.44-.44-1.55-1.1-2.85-1.98-3.9s-1.99-1.83-3.31-2.35c-1.33-.52-2.87-.79-4.65-.79-1.27,0-2.46.13-3.55.4-1.09.27-2.09.66-3,1.17s-1.71,1.14-2.41,1.9c-.7.76-1.29,1.62-1.76,2.6-.48.98-.84,2.07-1.09,3.26-.25,1.19-.37,2.49-.37,3.89v22.34Z"/>
        <path class="cls-2" d="m344.19,254.79c.87-1.91,2.12-3.54,3.76-4.89,1.63-1.35,3.6-2.38,5.93-3.11,2.32-.72,4.93-1.09,7.81-1.09,3.06,0,5.8.41,8.22,1.23,2.42.82,4.47,2,6.16,3.53,1.69,1.54,2.98,3.41,3.88,5.63.9,2.22,1.35,4.73,1.35,7.54v24.5h-7.58v-11.31h.05c-.32,1.29-.77,2.48-1.33,3.6-.56,1.11-1.23,2.13-2,3.05s-1.65,1.75-2.63,2.46c-.98.72-2.05,1.32-3.2,1.82s-2.4.87-3.72,1.12-2.72.38-4.18.38c-2.26,0-4.31-.3-6.16-.89-1.85-.59-3.43-1.44-4.75-2.53-1.32-1.09-2.33-2.4-3.05-3.93-.72-1.53-1.08-3.23-1.08-5.1s.37-3.58,1.12-5.09c.74-1.51,1.81-2.8,3.2-3.85,1.39-1.05,3.08-1.86,5.07-2.43,1.98-.56,4.22-.84,6.72-.84h16.22v6.37h-16.29c-1.4,0-2.63.12-3.69.36-1.06.24-1.95.59-2.67,1.07-.72.48-1.26,1.06-1.63,1.76-.37.7-.55,1.51-.55,2.42,0,.97.21,1.84.63,2.6s1.03,1.4,1.84,1.91c.81.51,1.81.9,3.01,1.17s2.56.4,4.11.4c1.46,0,2.84-.12,4.15-.36,1.3-.24,2.51-.57,3.62-1.01,1.11-.44,2.11-.97,3-1.59.88-.62,1.64-1.33,2.26-2.11.62-.78,1.1-1.63,1.43-2.56.33-.92.5-1.9.5-2.92v-8.46c0-1.7-.28-3.23-.85-4.59-.57-1.36-1.37-2.52-2.42-3.48-1.05-.96-2.32-1.7-3.82-2.21-1.5-.51-3.18-.77-5.06-.77s-3.56.2-4.95.62c-1.39.41-2.54.99-3.44,1.74-.91.75-1.58,1.66-2.02,2.73-.44,1.07-.66,2.25-.66,3.55h-7.58c0-2.37.44-4.51,1.31-6.42Z"/>
        <path class="cls-2" d="m394.87,242.06h-7.96v-9.36h7.96v9.36Zm-.19,46.07h-7.58v-41.3h7.58v41.3Z"/>
        <path class="cls-2" d="m424.95,246.66c2.19.64,4.04,1.55,5.54,2.73,1.51,1.18,2.65,2.61,3.43,4.29.78,1.68,1.17,3.56,1.17,5.65h-7.4c0-1.06-.22-2.03-.66-2.9-.45-.87-1.1-1.61-1.97-2.23-.87-.62-1.94-1.09-3.21-1.43-1.27-.34-2.74-.51-4.4-.51-1.48,0-2.85.14-4.08.41-1.24.28-2.3.67-3.19,1.17-.89.51-1.57,1.11-2.06,1.82-.48.71-.73,1.49-.73,2.35,0,.65.14,1.22.41,1.71.27.48.65.91,1.12,1.28.47.37,1.03.68,1.66.94.64.26,1.32.48,2.05.66.73.19,1.49.34,2.28.48.79.13,1.56.26,2.32.38l2.76.43c1.16.19,2.37.4,3.64.62,1.26.23,2.51.54,3.74.91,1.23.37,2.41.85,3.52,1.43,1.12.58,2.1,1.31,2.94,2.18.84.87,1.52,1.92,2.02,3.15.51,1.23.76,2.67.76,4.33,0,2.03-.4,3.84-1.2,5.42-.8,1.58-1.98,2.91-3.54,4-1.56,1.09-3.49,1.91-5.79,2.47-2.3.56-4.95.84-7.96.84s-5.88-.31-8.24-.92c-2.36-.61-4.33-1.51-5.9-2.7-1.57-1.19-2.76-2.64-3.55-4.37-.79-1.73-1.19-3.72-1.19-5.97h7.4c0,1.19.23,2.24.69,3.16.46.92,1.17,1.69,2.12,2.32.95.63,2.14,1.11,3.58,1.43,1.44.33,3.13.49,5.08.49,1.76,0,3.33-.13,4.7-.39,1.37-.26,2.54-.65,3.48-1.16.95-.51,1.67-1.14,2.17-1.88s.75-1.59.75-2.56c0-.76-.15-1.42-.44-1.98s-.69-1.05-1.2-1.48c-.51-.43-1.1-.79-1.8-1.1-.69-.3-1.44-.57-2.26-.8-.81-.23-1.66-.42-2.54-.58-.88-.16-1.77-.33-2.67-.49l-2.75-.47c-1.05-.17-2.16-.37-3.33-.6-1.17-.23-2.34-.52-3.49-.88-1.16-.36-2.26-.81-3.31-1.35-1.05-.54-1.99-1.21-2.79-2.01s-1.45-1.76-1.93-2.87c-.48-1.11-.72-2.41-.72-3.92,0-1.9.4-3.62,1.21-5.15s1.96-2.85,3.47-3.93c1.5-1.09,3.33-1.92,5.49-2.51,2.16-.59,4.58-.88,7.29-.88s5.31.32,7.5.95Z"/>
      </g>
      <g>
        <path class="cls-1" d="m176.25,57.48c7.32-1.52,14.1-4.6,20.18-9.15,9.19-6.89,15.24-16.17,20.66-27.86.63-1.36,1.2-2.75,1.63-3.8l1.44-3.54,1.44,3.54c.43,1.05,1,2.43,1.63,3.8,5.41,11.68,11.47,20.97,20.66,27.86,6.07,4.55,12.85,7.63,20.18,9.15l8.57-14.21c-8.23-.5-15.81-3.36-22.55-8.52-7.38-5.66-13.31-13.27-17.62-22.62-1.64-3.56-3-7.39-4.04-11.39h-8.26s-8.26,0-8.26,0c-1.04,4-2.4,7.83-4.04,11.39-4.31,9.36-10.24,16.97-17.62,22.62-6.74,5.16-14.32,8.02-22.55,8.52l8.57,14.21Z"/>
        <path class="cls-1" d="m153.9,123.77c6.66,11.51,15.84,20.85,27.28,27.76,11.43,6.9,24.48,10.4,38.8,10.4.05,0,.1,0,.15,0,.05,0,.1,0,.15,0,14.32,0,27.38-3.5,38.8-10.4,11.44-6.91,20.62-16.25,27.28-27.76,6.66-11.51,10.03-24.44,10.03-38.45,0-11.43-2.33-22.22-6.93-32.14l-11.32,15.02c1.61,5.57,2.42,11.43,2.42,17.43,0,11.11-2.7,21.42-8.01,30.64-5.31,9.22-12.59,16.71-21.64,22.26-9.07,5.57-19.38,8.39-30.63,8.39-.05,0-.1,0-.15,0-.05,0-.1,0-.15,0-11.25,0-21.56-2.82-30.63-8.39-9.05-5.55-16.33-13.03-21.64-22.26-5.31-9.23-8.01-19.54-8.01-30.64,0-5.99.81-11.85,2.42-17.43l-11.32-15.02c-4.6,9.91-6.93,20.71-6.93,32.14,0,14.01,3.38,26.95,10.03,38.45Z"/>
      </g>
    </g>
  </g>
</svg>